<?xml version="1.0" encoding="utf-8"?>
<!-- Generator: Adobe Illustrator 18.1.1, SVG Export Plug-In . SVG Version: 6.00 Build 0)  -->
<svg version="1.1" xmlns="http://www.w3.org/2000/svg" xmlns:xlink="http://www.w3.org/1999/xlink" x="0px" y="0px"
	 viewBox="64.1 190.7 386.2 184.5" enable-background="new 64.1 190.7 386.2 184.5" xml:space="preserve">
<g id="logo">
	<g id="cloud" display="none">
		<g display="inline">
			<path d="M73.2,322.1c4.7-11.9,12.8-20.7,24.4-26.1c10-4.6,20.5-5.6,31.1-2.9c11.2,2.8,20.2,9,26.9,18.5c6.7,9.4,9.4,20,8.4,31.6
				c1,0.2,2,0.4,3,0.7c12.4,3.7,20.9,11.5,25.5,23.5c2,5.4,2.6,10.9,2,16.6c-0.5,4.5-1.7,8.8-3.7,12.8c-3.4,6.8-8.5,12.2-15.1,16
				c-5.8,3.3-12.2,4.9-18.9,4.9c-39.7,0-79.4,0-119.1,0c-8.8,0-16.7-2.7-23.6-8.1C7,403.7,2.4,396.2,0.7,387
				c-0.7-3.4-0.8-6.9-0.5-10.4c0.6-6.5,2.8-12.5,6.6-17.9c5.8-8.2,13.7-13.3,23.5-15.4c0.4-0.1,0.8-0.1,1.1-0.2c0,0,0,0,0.1-0.1
				c-1.2-7,0.2-13.4,4.5-19.1c2.9-3.8,6.5-6.6,11.1-8.2C57,312.3,65.7,314.7,73.2,322.1z"/>
		</g>
	</g>
	<g>
		<g id="hand_1_">
			<g>
				<path d="M222.7,332.4c-1.2-0.4-2.4-0.7-3.6-1.1c-6-2-11.8-4.3-17.5-7c-3.6-1.8-7.2-3.7-10.6-6c-1.5-1-2.9-2.2-4.4-3.3
					c-1.9-1.4-4-2.2-6.3-2.3c-2.6-0.1-5.1,0.4-7.5,1c-2.7,0.8-5.5,1.5-8.3,1.9c-2.2,0.3-4.3,0.5-6.5,0.7c-2.1,0.2-4.3,0.3-6.4,0.5
					c-1.5,0.1-3,0.2-4.4,0.4c-1.5,0.2-3,0.5-4.5,1.1c-1.8,0.8-2.6,2.2-2.7,4.1c-0.2,2.5,1.6,4.6,4.2,5.3c1.1,0.3,2.1,0.4,3.2,0.3
					c4.4-0.3,8.7-0.6,13.1-0.5c2.1,0.1,4.1,0,6.1,0.6c0.7,0.2,1.4,0.4,2.1,0.6c0,0,0,0.1,0,0.1c-1.2,0.2-2.3,0.3-3.5,0.5
					c-1.7,0.2-3.4,0.4-5.1,0.6c-1.7,0.2-3.3,0.4-5,0.5c-2,0.1-3.9,0.3-5.9,0.3c-2.2,0-4.3-0.2-6.4-0.8c-2.8-0.9-4.7-2.7-5.5-5.6
					c-0.4-1.4-0.2-2.8,0.2-4.2c0-0.1,0.1-0.3,0.1-0.4c0,0,0,0,0-0.1c-1.3-0.4-2.6-0.8-3.9-1.1c-5.6-1.6-11.3-3.3-16.9-4.8
					c-2.3-0.6-4.6-0.5-6.8,0.2c-1.8,0.6-2.9,2.1-3,3.9c0,1.2,0.6,2,1.4,2.6c0.8,0.6,1.7,1.1,2.6,1.5c4.7,2,9.3,4.2,13.8,6.5
					c5.9,3,11.7,6.3,17.3,9.8c0.9,0.6,1.9,1.2,2.8,1.8c1.6,0.9,3.4,1.2,5.2,0.9c1.7-0.2,3.4-0.4,5.1-0.5c2.4-0.2,4.8-0.4,7.2-0.5
					c2.5-0.1,5.1-0.2,7.6-0.3c3.4-0.1,6.8-0.1,10.2,0.3c3.6,0.4,7.1,1,10.4,2.4c3.4,1.3,6.5,3.2,9.3,5.7c0.1,0.1,0.3,0.2,0.5,0.1
					c5.5-1.4,10.7-3.5,15.4-6.8c2.6-1.8,4.7-4,6.2-6.8c0.2-0.5,0.4-1,0.6-1.4C222.5,332.8,222.6,332.6,222.7,332.4z"/>
			</g>
		</g>
		<g id="text_version_1_">
			<g id="cloud_with_cutout_and_e_1_">
				<g>
					<path d="M186.6,293.9c-0.9-2.2-1.3-4.5-1.3-6.6c0-3.3,0.7-6.3,2.2-9.1c1.3-2.4,3-4.4,5.1-5.9c-1.5-0.9-3.1-1.6-4.9-2.2
						c-0.5-0.1-1-0.2-1.5-0.4c0.5-5.8-0.9-11-4.2-15.7c-3.3-4.7-7.8-7.8-13.4-9.2c-5.3-1.3-10.5-0.9-15.5,1.4
						c-5.8,2.7-9.8,7.1-12.2,13c-3.7-3.7-8-4.8-13-3.2c-2.3,0.8-4.1,2.2-5.5,4.1c-2.1,2.8-2.8,6-2.2,9.5c0,0,0,0-0.1,0
						c-0.2,0-0.4,0.1-0.6,0.1c-4.9,1.1-8.8,3.6-11.7,7.7c-1.9,2.7-3,5.7-3.3,8.9c-0.2,1.7-0.1,3.4,0.2,5.2c0.9,4.6,3.1,8.4,6.8,11.3
						c3.4,2.7,7.4,4,11.7,4c10.4,0,20.7,0,31.1,0l0.6-4.9c-1.8-0.2-3.9-0.6-6.2-1.3s-4.1-1.3-5.3-2l1.4-7.3c3.5,2.2,7.2,3.6,11,4.2
						l1.5-11.3c-2.1-1-3.9-2.1-5.3-3.3c-1.4-1.1-2.5-2.3-3.3-3.5c-0.8-1.2-1.3-2.3-1.6-3.4c-0.3-1.1-0.5-2.1-0.5-3
						c0-1.6,0.5-3.3,1.5-5.1c1-1.8,2.6-3.3,4.8-4.6c2.2-1.3,4.8-1.9,8-1.9l0.3-2.3h5.1l-0.4,2.8c1.9,0.4,3.7,0.9,5.3,1.6
						c1.6,0.6,3,1.4,4,2.2l-0.9,6.6c-1.4-0.8-2.6-1.5-3.8-2.1s-2.1-1-2.9-1.3c-0.8-0.3-1.7-0.5-2.6-0.7l-1.5,10.2
						c7.4,3.6,11,8.2,11,13.6c0,1.8-0.5,3.6-1.6,5.4c-1.1,1.8-2.7,3.3-4.9,4.5c-2.2,1.2-4.9,1.9-8.1,2l-0.7,4.7c7.8,0,15.5,0,23.3,0
						c3.4,0,6.5-0.8,9.4-2.5c1.5-0.8,2.7-1.8,3.9-2.9c-1.6-0.4-3-1-4.2-1.8C189.2,298.1,187.5,296.2,186.6,293.9z"/>
					<path d="M165,290.8c0-1.7-0.9-3.1-2.8-4.2l-1.2,8.8c1.1-0.4,2-0.9,2.8-1.6S165,292.1,165,290.8z"/>
					<path d="M156.1,270.5c0,1.3,1,2.5,2.9,3.7l1.1-7.8C157.5,267,156.1,268.4,156.1,270.5z"/>
				</g>
				<g id="ellf.org_1_">
					<path d="M240.2,258.1l-6.4,43.5h-10.6l6.4-43.5H240.2z"/>
					<path d="M260.1,258.1l-6.4,43.5h-10.6l6.4-43.5H260.1z"/>
					<path d="M292,258.5l-1.1,7.7c-1.5-0.2-2.8-0.3-3.7-0.3c-1.8,0-3.2,0.5-4.2,1.5c-0.9,1-1.6,2.9-1.9,5.7h7.2l-1.3,7.8h-7
						l-4.9,33.7h-10.4l4.9-33.7h-7.3l1.2-7.8h7.2l0.5-3c0.3-1.5,0.6-2.9,1-4s1-2.4,2-3.8c1-1.3,2.3-2.5,4.1-3.4
						c1.8-0.9,4-1.4,6.8-1.4c1.2,0,2.3,0.1,3.3,0.3C289.3,257.9,290.5,258.2,292,258.5z"/>
					<path d="M298.1,295.6c0,1.2-0.3,2.3-0.9,3.3c-0.6,1-1.4,1.8-2.4,2.4c-1,0.6-2.1,0.9-3.3,0.9s-2.3-0.3-3.3-0.9
						c-1-0.6-1.8-1.4-2.4-2.4c-0.6-1-0.9-2.1-0.9-3.3c0-1.2,0.3-2.3,0.9-3.3c0.6-1,1.4-1.8,2.4-2.4c1-0.6,2.1-0.9,3.3-0.9
						s2.3,0.3,3.3,0.9c1,0.6,1.8,1.4,2.4,2.4C297.8,293.3,298.1,294.4,298.1,295.6z"/>
					<path d="M342.8,284.4c0,2.5-0.5,4.9-1.4,7.1c-0.9,2.2-2.2,4.1-3.8,5.7c-1.6,1.6-3.5,2.8-5.7,3.7c-2.2,0.9-4.5,1.3-7,1.3
						c-2.9,0-5.6-0.6-8.1-1.9c-2.5-1.3-4.5-3.1-5.9-5.4c-1.5-2.4-2.2-5.1-2.2-8.1c0-2.3,0.5-4.6,1.4-6.7c0.9-2.1,2.3-4,3.9-5.7
						c1.7-1.6,3.7-2.9,5.9-3.8c2.3-0.9,4.7-1.4,7.2-1.4c2.7,0,5.2,0.6,7.6,1.7c2.4,1.1,4.3,2.9,5.7,5.2
						C342,278.2,342.8,281.1,342.8,284.4z M332.1,284.2c0-1.9-0.5-3.5-1.6-4.5c-1-1.1-2.4-1.6-4-1.6c-1.7,0-3,0.5-4.1,1.5
						c-1.1,1-1.8,2.2-2.3,3.6c-0.5,1.4-0.7,2.7-0.7,3.9c0,1.7,0.5,3.2,1.5,4.4c1,1.2,2.4,1.8,4.1,1.8c1.4,0,2.6-0.4,3.7-1.3
						c1.1-0.9,1.9-2,2.5-3.4C331.8,287.1,332.1,285.6,332.1,284.2z"/>
					<path d="M375.2,272.3l-4.9,10.1c-0.6-1-1.2-1.8-1.9-2.5c-0.7-0.7-1.6-1-2.6-1c-2,0-3.9,1.5-5.6,4.4l-2.7,18.3h-10.3l4.8-31.9
						h10.3l-0.7,4.6c2.9-3.4,5.4-5.1,7.7-5.1c1.2,0,2.2,0.3,3.1,0.9C373.2,270.5,374.2,271.3,375.2,272.3z"/>
					<path d="M409.2,269.6l-1,7.1h-4.5c0.6,1.6,0.8,3.1,0.8,4.5c0,2.2-0.5,4.1-1.6,5.8c-1,1.7-2.6,3-4.7,4c-2.1,0.9-4.7,1.4-7.7,1.4
						h-1.9c-1,0-1.8,0.2-2.4,0.5c-0.6,0.3-0.9,0.8-0.9,1.4c0,0.5,0.2,0.9,0.5,1.2c0.3,0.3,1,0.5,2.1,0.8c1.1,0.3,2.9,0.6,5.6,1.1
						c7.4,1.4,11.2,4.5,11.2,9.3c0,1.6-0.4,3.1-1.2,4.5c-0.8,1.5-2.4,2.7-4.8,3.8c-2.4,1.1-5.8,1.6-10.3,1.6c-2.4,0-4.6-0.1-6.6-0.3
						s-3.6-0.6-5-1.2c-1.4-0.6-2.5-1.4-3.3-2.5c-0.8-1.1-1.2-2.4-1.2-4c0-3.1,2.4-5.5,7.1-7.1c-1.2-0.7-2.1-1.4-2.8-2.2
						s-1.1-1.9-1.1-3.2c0-3,2.3-4.9,6.9-5.5c-1.9-0.8-3.4-2.1-4.4-4c-1.1-1.9-1.6-3.8-1.6-5.7c0-1.2,0.2-2.5,0.7-3.8
						c0.5-1.3,1.2-2.5,2.3-3.7s2.5-2.1,4.3-2.8c1.8-0.7,3.9-1.1,6.4-1.1H409.2z M394.9,308.2c0-1-0.5-1.7-1.4-2
						c-1-0.4-2.9-0.7-5.9-1.1l-2-0.3c-1.5,0.6-2.5,1.1-3.1,1.5c-0.5,0.4-0.8,0.9-0.8,1.6c0,0.9,0.6,1.6,1.7,2.1
						c1.1,0.4,2.9,0.6,5.3,0.6c2.4,0,4-0.2,4.9-0.6C394.5,309.6,394.9,309,394.9,308.2z M394.8,280.1c0-1.4-0.3-2.5-1-3.2
						c-0.7-0.8-1.6-1.1-2.8-1.1c-1.8,0-3,0.7-3.7,2.2s-1.1,2.8-1.1,4.1c0,1.4,0.4,2.5,1.1,3.3c0.8,0.8,1.7,1.2,2.7,1.2
						c1.7,0,2.9-0.7,3.6-2C394.4,283,394.8,281.6,394.8,280.1z"/>
					<g>
						<path d="M198.7,278.3c-0.8,1.1-1.5,2.6-2.2,4.3h4.2c-0.1-0.3-0.2-0.6-0.3-0.9C199.9,280.6,199.4,279.4,198.7,278.3z"/>
						<path d="M201.5,288.3h-5.9c0,3.7,1.6,5.9,4.7,6.5c0.6-1.5,0.9-3.1,1.1-4.7C201.5,289.5,201.5,288.9,201.5,288.3z"/>
						<path d="M196,301.5c1.8,0.4,3.8,0.6,6,0.6c2,0,3.7-0.2,5.1-0.5s3.1-0.9,5.4-1.8l1.6-7.8c-2.4,1-4.4,1.7-6.1,2.2
							c-1.7,0.5-3.6,0.8-5.8,0.8c-0.7,0-1.3-0.1-1.8-0.2c-0.2,0.6-0.5,1.1-0.7,1.7C198.6,298.4,197.4,300,196,301.5z"/>
						<path d="M198.7,278.3c0.1-0.1,0.1-0.2,0.2-0.3c0.9-1.2,2.1-1.8,3.6-1.8c2.5,0,3.7,1.8,3.7,5.4c0,0.3,0,0.5,0,0.6s0,0.3,0,0.4
							h-5.5c0.6,1.8,0.8,3.7,0.8,5.6h14.3c0.3-1.6,0.4-3.2,0.4-4.7c0-3.2-0.6-5.9-1.9-8.1c-1.2-2.2-2.9-3.8-4.9-4.9
							c-2.1-1.1-4.3-1.6-6.8-1.6c-3.3,0-6.3,0.8-9,2.5c-0.4,0.2-0.7,0.5-1.1,0.7C195.2,273.8,197.2,275.8,198.7,278.3z"/>
					</g>
				</g>
			</g>
		</g>
	</g>
	<g id="cloud_with_cutout" display="none">
		<g display="inline">
			<path d="M192.6,367.4c-4.6-12.1-13.1-19.9-25.5-23.5c-1-0.3-2-0.5-3-0.7c0.9-11.6-1.8-22.1-8.4-31.6
				c-6.7-9.4-15.7-15.6-26.9-18.5c-10.7-2.7-21.1-1.8-31.1,2.9c-11.6,5.4-19.7,14.3-24.4,26.1c-7.5-7.3-16.1-9.7-26.1-6.4
				c-4.5,1.5-8.2,4.3-11.1,8.2c-4.3,5.7-5.7,12.1-4.5,19.1c-0.1,0.1-0.1,0.1-0.1,0.1c-0.4,0.1-0.8,0.1-1.1,0.2
				c-9.8,2.1-17.7,7.2-23.5,15.4c-3.8,5.4-5.9,11.4-6.6,17.9c-0.3,3.5-0.2,6.9,0.5,10.4c1.8,9.2,6.3,16.8,13.6,22.6
				c6.9,5.5,14.8,8.1,23.6,8.1c20.8,0,41.6,0,62.5,0l1.2-9.8c-3.6-0.4-7.8-1.2-12.4-2.6c-4.7-1.3-8.3-2.7-10.7-4l2.8-14.7
				c7.1,4.5,14.4,7.3,22.1,8.4l3.1-22.7c-4.2-2.1-7.8-4.2-10.6-6.6c-2.9-2.3-5.1-4.7-6.6-7c-1.6-2.4-2.7-4.6-3.3-6.8
				c-0.6-2.2-0.9-4.1-0.9-6c0-3.2,1-6.6,3.1-10.2c2.1-3.6,5.3-6.7,9.6-9.2c4.3-2.5,9.7-3.8,16-3.8l0.6-4.5h10.3l-0.8,5.5
				c3.8,0.8,7.4,1.8,10.6,3.2c3.3,1.3,5.9,2.8,8,4.3l-1.8,13.2c-2.7-1.6-5.3-3-7.6-4.1c-2.3-1.2-4.3-2-5.9-2.6
				c-1.6-0.5-3.3-1-5.2-1.4l-3,20.5c14.8,7.3,22.2,16.4,22.2,27.4c0,3.6-1.1,7.2-3.2,10.8c-2.1,3.6-5.4,6.6-9.9,9.1
				c-4.4,2.5-9.9,3.8-16.3,4.1l-1.4,9.5c15.6,0,31.2,0,46.7,0c6.7,0,13-1.6,18.9-4.9c6.6-3.8,11.7-9.2,15.1-16c2-4,3.2-8.3,3.7-12.8
				C195.2,378.3,194.6,372.7,192.6,367.4z"/>
			<path d="M103.6,344.6c0,2.5,1.9,5,5.8,7.4l2.2-15.7C106.3,337.6,103.6,340.3,103.6,344.6z"/>
		</g>
	</g>
</g>
<g id="small">
	<g id="monetize_now">
		<g>
			<path d="M250,351.3h-3l-0.3-7.8l-4.2,7.8h-1.9l-2-8l-2.6,8h-3.1l4-12.2h3.3l1.9,7.7l4.2-7.7h3.2L250,351.3z"/>
			<path d="M265.3,344.6c0,1-0.2,1.9-0.5,2.8s-0.8,1.6-1.4,2.2c-0.6,0.6-1.4,1.1-2.2,1.5s-1.8,0.5-2.9,0.5c-1,0-1.9-0.2-2.9-0.6
				s-1.7-1-2.3-1.8c-0.6-0.8-0.9-1.9-0.9-3.2c0-1.1,0.2-2.1,0.6-3s0.9-1.6,1.6-2.2s1.4-1,2.3-1.3c0.8-0.3,1.8-0.4,2.7-0.4
				c1.1,0,2.1,0.2,3,0.7c0.9,0.4,1.6,1.1,2.1,1.9S265.3,343.4,265.3,344.6z M262.1,344.8c0-0.6-0.1-1.1-0.4-1.6s-0.6-0.8-1-1.1
				s-0.9-0.4-1.5-0.4c-0.8,0-1.5,0.2-2,0.6c-0.6,0.4-1,0.9-1.3,1.6c-0.3,0.6-0.4,1.3-0.4,1.9c0,0.8,0.3,1.5,0.8,2.1s1.2,0.9,2.1,0.9
				c0.6,0,1.1-0.1,1.5-0.3s0.9-0.5,1.2-0.9s0.6-0.8,0.7-1.3C262,345.8,262.1,345.3,262.1,344.8z"/>
			<path d="M280.5,339.2l-1.8,12.2h-2.9L271,344l-1.1,7.3h-3.1l1.8-12.2h2.9l4.8,7.3l1.1-7.3H280.5z"/>
			<path d="M291.6,339.2l-0.3,2.2h-4.9L286,344h4.3l-0.3,2.2h-4.3l-0.4,3h6l-0.3,2.2h-9.1l1.8-12.2H291.6z"/>
			<path d="M304.8,339.2l-0.4,2.5h-3.9l-1.5,9.7h-3.1l1.4-9.7h-3.9l0.4-2.5H304.8z"/>
			<path d="M310.2,339.2l-1.8,12.2h-3.1l1.8-12.2H310.2z"/>
			<path d="M323.8,339.2l-8.3,10h6.1l-0.3,2.2h-11.3l8.3-10h-6l0.3-2.2H323.8z"/>
			<path d="M333.1,339.2l-0.3,2.2h-4.9l-0.4,2.6h4.3l-0.3,2.2h-4.3l-0.4,3h6l-0.3,2.2h-9.1l1.8-12.2H333.1z"/>
			<path d="M353.3,339.2l-1.8,12.2h-2.9l-4.8-7.3l-1.1,7.3h-3.1l1.8-12.2h2.9l4.8,7.3l1.1-7.3H353.3z"/>
			<path d="M367.8,344.6c0,1-0.2,1.9-0.5,2.8c-0.3,0.8-0.8,1.6-1.4,2.2c-0.6,0.6-1.4,1.1-2.2,1.5s-1.8,0.5-2.9,0.5
				c-1,0-1.9-0.2-2.9-0.6s-1.7-1-2.3-1.8c-0.6-0.8-0.9-1.9-0.9-3.2c0-1.1,0.2-2.1,0.6-3s0.9-1.6,1.6-2.2s1.4-1,2.3-1.3
				c0.8-0.3,1.8-0.4,2.7-0.4c1.1,0,2.1,0.2,3,0.7c0.9,0.4,1.6,1.1,2.1,1.9S367.8,343.4,367.8,344.6z M364.6,344.8
				c0-0.6-0.1-1.1-0.4-1.6s-0.6-0.8-1-1.1s-0.9-0.4-1.5-0.4c-0.8,0-1.5,0.2-2,0.6c-0.6,0.4-1,0.9-1.3,1.6c-0.3,0.6-0.4,1.3-0.4,1.9
				c0,0.8,0.3,1.5,0.8,2.1s1.2,0.9,2.1,0.9c0.6,0,1.1-0.1,1.5-0.3s0.9-0.5,1.2-0.9s0.6-0.8,0.7-1.3
				C364.5,345.8,364.6,345.3,364.6,344.8z"/>
			<path d="M387,339.2l-6,12.3h-1.7l-1.9-7l-3.7,7H372l-2.6-12.3h3l1.2,7l3.5-7h2l1.7,7l3.2-7H387z"/>
			<path d="M390.5,349.7c0,0.3-0.1,0.6-0.2,0.9s-0.4,0.5-0.7,0.7s-0.6,0.2-0.9,0.2c-0.3,0-0.6-0.1-0.9-0.2s-0.5-0.4-0.7-0.7
				s-0.2-0.6-0.2-0.9c0-0.3,0.1-0.6,0.2-0.9s0.4-0.5,0.7-0.7s0.6-0.2,0.9-0.2c0.3,0,0.6,0.1,0.9,0.2s0.5,0.4,0.7,0.7
				S390.5,349.3,390.5,349.7z M391.8,340.3c0,0.3,0,0.6-0.1,0.9c-0.1,0.3-0.2,0.7-0.3,1.2l-1.4,4.9h-1.9l0.2-5.7
				c0.1-0.8,0.1-1.3,0.2-1.6c0.1-0.3,0.3-0.5,0.5-0.7c0.3-0.2,0.7-0.3,1.1-0.3c0.6,0,0.9,0.1,1.2,0.4
				C391.6,339.7,391.8,340,391.8,340.3z"/>
		</g>
	</g>
	<g id="card_box">
		<polyline fill="none" stroke="#000000" stroke-width="3" stroke-miterlimit="10" points="387.1,208.7 443.9,208.7 443.9,368.6 
			69.9,368.6 69.9,208.7 127,208.7 		"/>
	</g>
</g>
<g id="large" display="none">
	<g id="large_text" display="inline">
	</g>
	<g id="large_box" display="inline">
		<polyline fill="none" stroke="#000000" stroke-width="3" stroke-miterlimit="10" points="387.1,208.7 443.9,208.7 443.9,607.3 
			69.9,607.3 69.9,208.7 127,208.7 		"/>
	</g>
	<g id="monetize_now_low" display="inline">
	</g>
</g>
<g id="_x22_sponsored_by_x22_">
	<g>
		<path d="M149.2,203.8c1.1,0,2.1,0.3,2.8,1s1.1,1.5,1.1,2.6c0,1.1-0.4,1.9-1.1,2.6s-1.7,1-2.9,1h-2.3v5.2h-2.4v-12.3H149.2z
			 M148.6,209.1c0.6,0,1.1-0.1,1.5-0.4s0.5-0.7,0.5-1.3c0-1.1-0.7-1.7-2.2-1.7h-1.6v3.4H148.6z"/>
		<path d="M159.4,203.8c1.2,0,2.1,0.3,2.8,1s1.1,1.5,1.1,2.5c0,0.7-0.2,1.3-0.5,1.8s-0.9,0.9-1.6,1.2c0.4,0.2,0.7,0.5,1,0.9
			s0.7,1,1.1,1.8c0.8,1.5,1.3,2.5,1.7,3.1h-2.6c-0.2-0.3-0.4-0.7-0.7-1.3c-0.7-1.3-1.2-2.2-1.5-2.6s-0.6-0.8-0.9-1s-0.6-0.3-1-0.3
			h-0.9v5.2h-2.4v-12.3H159.4z M158.8,209c0.6,0,1.1-0.2,1.5-0.5s0.5-0.7,0.5-1.3c0-0.6-0.2-1-0.5-1.3s-0.9-0.4-1.5-0.4h-1.5v3.4
			H158.8z"/>
		<path d="M172.3,203.6c1.3,0,2.4,0.3,3.4,0.8s1.8,1.3,2.4,2.3s0.9,2.1,0.9,3.2c0,1.1-0.3,2.2-0.9,3.2s-1.4,1.7-2.4,2.3
			s-2.2,0.8-3.5,0.8c-1.3,0-2.4-0.3-3.5-0.8s-1.9-1.3-2.4-2.3s-0.9-2-0.9-3.2c0-1.1,0.3-2.2,0.9-3.2s1.4-1.8,2.4-2.3
			S171,203.6,172.3,203.6z M168,209.9c0,0.8,0.2,1.5,0.6,2.2s0.9,1.2,1.5,1.5s1.4,0.5,2.2,0.5c1.3,0,2.3-0.4,3.1-1.2
			s1.2-1.8,1.2-3.1c0-0.8-0.2-1.5-0.5-2.2s-0.9-1.2-1.5-1.5s-1.4-0.5-2.2-0.5s-1.6,0.2-2.2,0.5s-1.2,0.9-1.5,1.5
			S168,209.1,168,209.9z"/>
		<path d="M183.6,203.8v7.1c0,0.7,0.1,1.3,0.3,1.7s0.6,0.8,1.1,1.1s1.1,0.4,1.7,0.4c0.7,0,1.3-0.1,1.9-0.4s0.9-0.6,1.1-1.1
			s0.4-1.1,0.4-1.9v-7h2.4v7.3c0,1.7-0.5,2.9-1.5,3.8s-2.4,1.3-4.2,1.3c-1.1,0-2.1-0.2-3-0.6s-1.5-1-1.9-1.8s-0.7-1.7-0.7-2.7v-7.4
			H183.6z"/>
		<path d="M200.2,203.8c1.3,0,2.4,0.3,3.4,0.8s1.8,1.3,2.3,2.2s0.8,2,0.8,3.2c0,1.2-0.3,2.3-0.8,3.2s-1.3,1.6-2.4,2.2
			s-2.2,0.8-3.5,0.8h-5v-12.3H200.2z M199.9,214.2c1.3,0,2.4-0.4,3.2-1.2s1.2-1.8,1.2-3.1c0-1.3-0.4-2.4-1.2-3.1s-1.9-1.2-3.2-1.2
			h-2.4v8.6H199.9z"/>
		<path d="M211.3,203.8v10.4h6v1.9h-8.3v-12.3H211.3z"/>
		<path d="M218.9,203.8l3,4.1l3-4.1h2.8L223,210v6.1h-2.4V210l-4.7-6.2H218.9z"/>
		<path d="M237.7,203.6c1.2,0,2.3,0.3,3.5,0.9v2.1c-1.3-0.8-2.4-1.2-3.4-1.2c-0.6,0-1.1,0.1-1.4,0.3s-0.5,0.5-0.5,0.9
			c0,0.5,0.3,0.9,0.9,1.3c0.2,0.1,0.9,0.4,2,1c1,0.5,1.7,1,2.2,1.6s0.7,1.3,0.7,2.1c0,1.1-0.4,1.9-1.1,2.6s-1.7,1-2.9,1
			c-0.8,0-1.5-0.1-2-0.3s-1.2-0.5-1.9-0.9v-2.3c1.3,1.1,2.5,1.6,3.7,1.6c0.6,0,1-0.1,1.4-0.4s0.5-0.6,0.5-1c0-0.6-0.3-1-0.9-1.4
			c-0.5-0.3-1.2-0.6-2-1c-1-0.4-1.7-1-2.2-1.5s-0.7-1.3-0.7-2c0-1,0.4-1.9,1.2-2.5S236.4,203.6,237.7,203.6z"/>
		<path d="M248.5,203.8c1.1,0,2.1,0.3,2.8,1s1.1,1.5,1.1,2.6c0,1.1-0.4,1.9-1.1,2.6s-1.7,1-2.9,1h-2.3v5.2h-2.4v-12.3H248.5z
			 M247.9,209.1c0.6,0,1.1-0.1,1.5-0.4s0.5-0.7,0.5-1.3c0-1.1-0.7-1.7-2.2-1.7h-1.6v3.4H247.9z"/>
		<path d="M260.5,203.6c1.3,0,2.4,0.3,3.4,0.8s1.8,1.3,2.4,2.3s0.9,2.1,0.9,3.2c0,1.1-0.3,2.2-0.9,3.2s-1.4,1.7-2.4,2.3
			s-2.2,0.8-3.5,0.8c-1.3,0-2.4-0.3-3.5-0.8s-1.9-1.3-2.4-2.3s-0.9-2-0.9-3.2c0-1.1,0.3-2.2,0.9-3.2s1.4-1.8,2.4-2.3
			S259.2,203.6,260.5,203.6z M256.2,209.9c0,0.8,0.2,1.5,0.6,2.2s0.9,1.2,1.5,1.5s1.4,0.5,2.2,0.5c1.3,0,2.3-0.4,3.1-1.2
			s1.2-1.8,1.2-3.1c0-0.8-0.2-1.5-0.5-2.2s-0.9-1.2-1.5-1.5s-1.4-0.5-2.2-0.5s-1.6,0.2-2.2,0.5s-1.2,0.9-1.5,1.5
			S256.2,209.1,256.2,209.9z"/>
		<path d="M271.6,203.8l7.3,8.6v-8.6h2.3v12.3h-2l-7.3-8.7v8.7h-2.3v-12.3H271.6z"/>
		<path d="M287.5,203.6c1.2,0,2.3,0.3,3.5,0.9v2.1c-1.3-0.8-2.4-1.2-3.4-1.2c-0.6,0-1.1,0.1-1.4,0.3s-0.5,0.5-0.5,0.9
			c0,0.5,0.3,0.9,0.9,1.3c0.2,0.1,0.9,0.4,2,1c1,0.5,1.7,1,2.2,1.6s0.7,1.3,0.7,2.1c0,1.1-0.4,1.9-1.1,2.6s-1.7,1-2.9,1
			c-0.8,0-1.5-0.1-2-0.3s-1.2-0.5-1.9-0.9v-2.3c1.3,1.1,2.5,1.6,3.7,1.6c0.6,0,1-0.1,1.4-0.4s0.5-0.6,0.5-1c0-0.6-0.3-1-0.9-1.4
			c-0.5-0.3-1.2-0.6-2-1c-1-0.4-1.7-1-2.2-1.5s-0.7-1.3-0.7-2c0-1,0.4-1.9,1.2-2.5S286.2,203.6,287.5,203.6z"/>
		<path d="M299.8,203.6c1.3,0,2.4,0.3,3.4,0.8s1.8,1.3,2.4,2.3s0.9,2.1,0.9,3.2c0,1.1-0.3,2.2-0.9,3.2c-0.6,1-1.4,1.7-2.4,2.3
			s-2.2,0.8-3.5,0.8c-1.3,0-2.4-0.3-3.5-0.8s-1.9-1.3-2.4-2.3s-0.9-2-0.9-3.2c0-1.1,0.3-2.2,0.9-3.2s1.4-1.8,2.4-2.3
			S298.5,203.6,299.8,203.6z M295.5,209.9c0,0.8,0.2,1.5,0.6,2.2s0.9,1.2,1.5,1.5s1.4,0.5,2.2,0.5c1.3,0,2.3-0.4,3.1-1.2
			s1.2-1.8,1.2-3.1c0-0.8-0.2-1.5-0.5-2.2s-0.9-1.2-1.5-1.5s-1.4-0.5-2.2-0.5s-1.6,0.2-2.2,0.5s-1.2,0.9-1.5,1.5
			S295.5,209.1,295.5,209.9z"/>
		<path d="M313.2,203.8c1.2,0,2.1,0.3,2.8,1s1.1,1.5,1.1,2.5c0,0.7-0.2,1.3-0.5,1.8s-0.9,0.9-1.6,1.2c0.4,0.2,0.7,0.5,1,0.9
			s0.7,1,1.1,1.8c0.8,1.5,1.3,2.5,1.7,3.1h-2.6c-0.2-0.3-0.4-0.7-0.7-1.3c-0.7-1.3-1.2-2.2-1.5-2.6s-0.6-0.8-0.9-1s-0.6-0.3-1-0.3
			h-0.9v5.2h-2.4v-12.3H313.2z M312.7,209c0.6,0,1.1-0.2,1.5-0.5s0.5-0.7,0.5-1.3c0-0.6-0.2-1-0.5-1.3s-0.9-0.4-1.5-0.4h-1.5v3.4
			H312.7z"/>
		<path d="M328.3,203.8v1.9h-5.6v3.2h5.3v1.9h-5.3v3.5h5.7v1.9h-8.1v-12.3H328.3z"/>
		<path d="M335.8,203.8c1.3,0,2.4,0.3,3.4,0.8s1.8,1.3,2.3,2.2s0.8,2,0.8,3.2c0,1.2-0.3,2.3-0.8,3.2s-1.3,1.6-2.4,2.2
			s-2.2,0.8-3.5,0.8h-5v-12.3H335.8z M335.6,214.2c1.3,0,2.4-0.4,3.2-1.2s1.2-1.8,1.2-3.1c0-1.3-0.4-2.4-1.2-3.1s-1.9-1.2-3.2-1.2
			h-2.4v8.6H335.6z"/>
		<path d="M354.1,203.8c1.1,0,2,0.3,2.8,0.9s1.1,1.3,1.1,2.2c0,0.6-0.1,1.1-0.4,1.5s-0.7,0.8-1.3,1v0.1c0.9,0.2,1.5,0.6,2,1.1
			s0.7,1.2,0.7,2c0,0.7-0.2,1.3-0.5,1.8s-0.8,0.9-1.5,1.2s-1.3,0.4-2.2,0.4h-5.1v-12.3H354.1z M353.5,208.9c0.6,0,1.1-0.1,1.5-0.4
			s0.5-0.7,0.5-1.2c0-0.5-0.2-0.9-0.5-1.1s-0.8-0.4-1.3-0.4H352v3.2H353.5z M354,214.2c0.8,0,1.4-0.2,1.8-0.5s0.6-0.7,0.6-1.3
			c0-0.5-0.2-0.9-0.6-1.2s-1-0.5-1.6-0.5H352v3.5H354z"/>
		<path d="M361.8,203.8l3,4.1l3-4.1h2.8l-4.6,6.2v6.1h-2.4V210l-4.7-6.2H361.8z"/>
	</g>
</g>
</svg>
