<?xml version="1.0" encoding="utf-8"?>
<!-- Generator: Adobe Illustrator 18.1.1, SVG Export Plug-In . SVG Version: 6.00 Build 0)  -->
<svg version="1.1" xmlns="http://www.w3.org/2000/svg" xmlns:xlink="http://www.w3.org/1999/xlink" x="0px" y="0px"
	 viewBox="0 0 14836.6 5064.5" enable-background="new 0 0 14836.6 5064.5" xml:space="preserve">
<g id="cloud" display="none">
	<g display="inline">
		<path d="M1774,739.7c115.1-288.1,309.9-503,591.9-633.8c242.6-112.6,496.1-134.8,755-69.3c271.6,68.7,489.9,219.3,651.9,447.9
			c162.1,228.7,227,484.8,204.7,765c24.2,5.9,49.2,10.7,73.4,17.9c299.9,88.7,507.7,278.2,618.6,570.9
			c49.2,129.9,63.1,265.2,48.8,403.6c-11.2,108.6-40.3,212.3-89.2,309.4c-83.2,165.1-204.9,295.3-365.8,387.4
			c-141.6,81.1-294.6,119.9-457.7,119.9c-962.4-0.1-1924.7,0-2887.1-0.1c-213.1,0-404.8-64.4-571.6-197.1
			c-177.6-141.3-288-324.6-330.9-548c-16-83.2-20-167-11.8-251.2c15.4-158.4,67.1-304,159.3-434.2c141-199,331.9-322.5,570-373.8
			c9.1-2,18.4-3.5,27.6-5.3c0.4-0.1,0.8-0.7,2.6-2.3c-29.3-168.8,5.2-324.7,108.4-463.3c69.1-92.8,158.5-161.1,268.3-198
			C1382.8,503.6,1592.6,561.8,1774,739.7z"/>
	</g>
</g>
<g id="hand">
	<g>
		<path d="M5752.2,4301.2c-58.5-18.6-116.2-36.1-173.4-55.3c-290.7-97.6-575.9-208.8-852.2-342.5c-177.6-85.9-351-179.1-513.8-290.7
			c-73.5-50.4-143.6-105.8-214.8-159.6c-91.6-69.3-194.2-108.1-309-114.3c-125.6-6.8-246.7,17.6-366.9,50.8
			c-133.9,37-268.8,70.8-406.5,90.4c-104.9,15-210.5,25.1-316.1,35.2c-103.7,9.9-207.7,16.7-311.6,25.4
			c-72.1,6.1-144.3,11.8-216.1,20.2c-74.4,8.7-147.7,22.9-216.9,53.5c-87.7,38.8-127.4,107.9-133.1,201.6
			c-7.4,122.6,78.6,224.3,202.4,257.1c51.6,13.7,104.3,18.1,157.7,14.2c212.4-15.7,424.8-30.8,638-24c100.3,3.2,201.1,1.9,299,29.5
			c34.4,9.7,68.4,20.9,102.5,31.4c-0.4,1.7-0.7,3.5-1.1,5.2c-57.1,7.7-114.1,15.7-171.2,22.9c-83.5,10.6-167,21.2-250.7,30.9
			c-81.2,9.4-162.3,19.7-243.7,25.8c-95.8,7.2-191.9,12.9-287.9,14.3c-105,1.5-209.4-8-310.3-40.7
			c-136.1-44.2-228.3-132-266.8-271.6c-18.9-68.4-9-136,10.5-202.8c2.1-7.2,4-14.4,5.8-21.6c0.3-1.1-0.4-2.4-0.9-5.1
			c-62.5-18.4-125.6-37.4-188.9-55.5c-274.7-78.8-549.1-158.4-824.2-235.3c-110.6-30.9-222.5-26.7-331.8,9.2
			c-89.6,29.4-143.4,102.8-147.1,192.2c-2.3,57,28.2,97,70.2,127c38.7,27.7,80.7,52.5,124.6,70.9
			c228.3,95.6,450.8,203.3,670.9,316.2c288.1,147.7,569.6,307,844.6,477.8c46.1,28.6,91,59.3,138.2,86
			c79.2,44.7,164.5,57.2,254.9,45.3c82.2-10.8,164.9-18.8,247.6-25.3c116.3-9.1,232.8-17.1,349.4-22.9c124-6.2,248.2-9.7,372.4-13.5
			c166-5,331.9-2.9,497.4,13.4c174.3,17.2,344.9,50.5,508.8,114.6c166.7,65.2,316.4,157.8,450.7,275.9c5.3,4.7,15.6,8.3,22,6.6
			c268.1-69.1,522.3-170.1,749.2-331.8c124.4-88.7,230.8-194.7,300-333.5c11.4-22.8,20.3-46.8,29.9-70.4
			C5747,4319.7,5749.2,4310.7,5752.2,4301.2z"/>
	</g>
</g>
<g id="text_version">
	<g id="cloud_with_cutout_and_e">
		<g>
			<path d="M3998.3,2428.4c-43.8-109-65.7-216.9-65.7-323.8c0-159.8,36.4-307.8,109.2-443.7c62.6-116.9,146.1-212.9,250.1-288.4
				c-72.3-43.8-152.6-79-241-105.1c-24.3-7.2-49.2-12.1-73.4-17.9c22.3-280.2-42.6-536.3-204.7-765
				c-162-228.6-380.3-379.1-651.9-447.9c-258.9-65.5-512.4-43.3-755,69.3c-282,130.9-476.8,345.7-591.9,633.8
				c-181.4-177.8-391.2-236.1-633.8-154.6C1030.4,622,941,690.3,871.9,783.1c-103.2,138.7-137.7,294.5-108.4,463.3
				c-1.8,1.6-2.1,2.2-2.6,2.3c-9.2,1.8-18.4,3.3-27.6,5.3c-238,51.3-429,174.8-570,373.8C71.2,1758,19.5,1903.7,4.1,2062
				c-8.2,84.1-4.1,168,11.8,251.2c42.9,223.4,153.3,406.7,330.9,548c166.8,132.7,358.5,197.1,571.6,197.1c504.7,0,1009.4,0,1514,0
				l29.4-237.5c-87.6-9.2-188.1-29.8-301.6-61.9c-113.5-32.1-200.3-64.4-260.4-97l68.7-357.4c171.1,107.9,349.2,176.2,534.6,204.7
				L2578,1958c-102.9-49.9-188.9-102.8-258.1-158.8c-69.3-56-123-112.8-161.1-170.3c-38.2-57.5-64.9-112.5-80.2-165
				c-15.3-52.4-22.9-100.5-22.9-144.3c0-77.4,24.9-159.6,74.8-246.7c49.9-87.1,127.5-161.4,232.9-223
				c105.4-61.6,234.4-92.4,387.2-92.4l15.3-110h250.5L2998,782c92.6,19.4,178.7,44.8,258.1,76.4c79.4,31.6,144.1,66.7,194,105.4
				l-42.8,319.2c-66.2-38.7-127.5-72-184-100c-56.5-28-104.1-48.6-142.8-61.9c-38.7-13.2-80.9-24.9-126.8-35.1l-71.8,496.4
				c358.4,176.2,537.6,397.6,537.6,664.4c0,86.6-26,173.6-77.9,261.2c-51.9,87.6-131.6,161.1-239,220.7
				c-107.4,59.6-239.6,92.4-396.3,98.5l-34,231.3c377.7,0,755.5,0,1133.2,0.1c163.2,0,316.1-38.8,457.7-119.9
				c70.7-40.5,133.8-88.3,189.4-143.1c-79.5-19.6-148.5-48.2-206.9-86C4124.5,2631,4042,2537.4,3998.3,2428.4z"/>
			<path d="M2944.6,2274.1c0-81.4-44.8-149.1-134.4-203.1l-59.6,430.7c51.9-18.3,97.2-44.8,135.9-79.4
				C2925.2,2387.7,2944.6,2338.3,2944.6,2274.1z"/>
			<path d="M2512.3,1286c0,61.1,46.8,120.7,140.5,178.7l53.5-381.8C2577,1115.4,2512.3,1183.1,2512.3,1286z"/>
		</g>
		<g id="ellf.org">
			<path d="M6604.4,682.7l-313.1,2116.9H5775l313.1-2116.9H6604.4z"/>
			<path d="M7577.3,682.7l-313.1,2116.9h-516.2L7061,682.7H7577.3z"/>
			<path d="M9127.5,704.1l-51.9,372.7c-75.4-11.2-135.9-16.8-181.8-16.8c-89.6,0-157.3,24.7-203.1,74.1
				c-45.8,49.4-77.4,141.8-94.7,277.2h348.2l-62.6,381.8h-342.1l-239.8,1641.9h-507.1L8030.9,1793h-354.3l56.5-381.8h352.8l26-145.1
				c14.3-74.3,30.3-139.8,48.1-196.3c17.8-56.5,49.9-117.6,96.2-183.3c46.3-65.7,112.8-120.9,199.3-165.7
				c86.5-44.8,197-67.2,331.4-67.2c58,0,112,4.1,161.9,12.2C8998.7,674,9058.2,686.8,9127.5,704.1z"/>
			<path d="M9427,2509.3c0,57-14.3,110-42.8,158.8c-28.5,48.9-67.2,87.6-116.1,116.1c-48.9,28.5-102.3,42.8-160.4,42.8
				s-111.5-14.3-160.4-42.8c-48.9-28.5-87.6-67.2-116.1-116.1c-28.5-48.9-42.8-101.8-42.8-158.8c0-58,14.2-111.5,42.8-160.4
				c28.5-48.9,67.2-87.6,116.1-116.1c48.9-28.5,102.3-42.8,160.4-42.8s111.5,14.3,160.4,42.8c48.9,28.5,87.6,67.2,116.1,116.1
				C9412.7,2397.9,9427,2451.3,9427,2509.3z"/>
			<path d="M11601.7,1964.1c0,123.2-22.4,238.5-67.2,345.9c-44.8,107.4-106.4,199.3-184.8,275.7c-78.4,76.4-171.1,135.7-278,177.9
				c-106.9,42.2-219.9,63.4-339.1,63.4c-140.5,0-271.4-30.8-392.5-92.4c-121.2-61.6-217.4-149.9-288.7-265
				c-71.3-115.1-106.9-246.9-106.9-395.6c0-113,22.9-221.7,68.7-326.1c45.8-104.3,109.7-196.5,191.7-276.4
				c81.9-79.9,177.9-142.3,287.9-187.1c110-44.8,227.6-67.2,352.8-67.2c131.4,0,254.5,27.8,369.6,83.2
				c115.1,55.5,208.2,139.3,279.5,251.2C11566.1,1663.7,11601.7,1801.2,11601.7,1964.1z M11082.4,1954.9
				c0-94.7-25.2-168.5-75.6-221.5c-50.4-52.9-114.8-79.4-193.2-79.4c-81.5,0-148.2,23.9-200.1,71.8
				c-51.9,47.9-89.9,105.7-113.8,173.4c-23.9,67.7-35.9,131.1-35.9,190.2c0,84.5,24.9,155.8,74.8,213.8c49.9,58,116.6,87,200.1,87
				c66.2,0,125.8-21.4,178.7-64.1c52.9-42.8,93.7-98,122.2-165.7C11068.2,2092.6,11082.4,2024.2,11082.4,1954.9z"/>
			<path d="M13181,1376.1l-239.8,491.8c-27.5-47.8-58-88.6-91.6-122.2c-33.6-33.6-76.4-50.4-128.3-50.4
				c-99.8,0-191.4,71.8-274.9,215.4l-131.4,888.9h-504l232.2-1554.8h504l-32.1,223c139.5-167,263.7-250.5,372.7-250.5
				c57,0,107.7,14,152,42C13084,1287.3,13131.1,1326.2,13181,1376.1z"/>
			<path d="M14836.6,1244.7l-48.9,346.7h-219.9c27.5,79.4,41.2,152.7,41.2,219.9c0,105.9-25.5,200.1-76.4,282.5
				c-50.9,82.5-127.5,146.6-229.9,192.4c-102.3,45.8-226.8,68.7-373.4,68.7h-90.1c-49.9,0-89.3,8.2-118.4,24.4
				c-29,16.3-43.5,39.7-43.5,70.3c0,25.5,7.4,44.6,22.1,57.3c14.8,12.7,48.6,25.5,101.6,38.2c52.9,12.7,143,30.8,270.3,54.2
				c362.5,67.2,543.7,218.4,543.7,453.6c0,76.4-18.9,149.9-56.5,220.7c-37.7,70.8-115.1,131.9-232.1,183.3
				c-117.1,51.4-283.6,77.1-499.4,77.1c-119.1,0-225.5-5.3-319.2-16c-93.7-10.7-175.1-30-244.4-58c-69.2-28-122.9-68-161.1-119.9
				c-38.2-51.9-57.3-117.6-57.3-197c0-151.7,115.5-266.3,346.7-343.6c-57-32.6-103.1-67.7-138.2-105.4
				c-35.1-37.7-52.7-90.1-52.7-157.3c0-146.6,111.5-236.2,334.5-268.8c-92.7-38.7-164.7-104.1-216.1-196.3
				c-51.4-92.1-77.1-184-77.1-275.7c0-59,11.2-120.4,33.6-184c22.4-63.6,60.1-123.7,113-180.2c52.9-56.5,122.4-101.8,208.5-135.9
				c86-34.1,190.7-51.2,313.9-51.2H14836.6z M14140.1,3124.8c0-47.9-23.2-80.7-69.5-98.5c-46.3-17.8-142.3-35.9-287.9-54.2
				l-96.2-13.7c-73.3,29.5-123,54.2-148.9,74.1c-26,19.9-38.9,45.6-38.9,77.1c0,45.8,27.2,79.2,81.7,100
				c54.5,20.9,140.8,31.3,258.9,31.3c116.1,0,195.2-10.2,237.5-30.5C14119,3190,14140.1,3161.5,14140.1,3124.8z M14134,1751.8
				c0-68.2-16.3-120.7-48.9-157.3c-32.6-36.7-77.9-55-135.9-55c-86.6,0-146.9,35.4-181,106.2c-34.1,70.8-51.2,137.2-51.2,199.3
				c0,68.2,18.3,121.4,55,159.6c36.7,38.2,80.9,57.3,132.9,57.3c82.5,0,141.3-33.1,176.4-99.3
				C14116.4,1896.4,14134,1826.1,14134,1751.8z"/>
			<g>
				<path d="M4587,1668.5c-38.2,55.5-74.1,125.8-107.7,211.5h204.6c-4.5-14-9.2-28-14.5-41.8
					C4646.3,1777.1,4618.6,1720.7,4587,1668.5z"/>
				<path d="M4723.4,2155h-285.3c0,181.8,75.8,286.4,226.8,314.3c27.6-72.9,45.3-148.9,53.4-227.5
					C4721.3,2212.7,4722.9,2183.8,4723.4,2155z"/>
				<path d="M4452.6,2795.4c85.4,21,182.8,31.6,292.5,31.6c99.8,0,182.5-7.6,248.2-22.9c65.7-15.3,153-44.8,261.9-88.6l77.9-381.8
					c-115.1,46.8-214.1,82.5-297.1,106.9c-83,24.4-176.9,36.7-281.8,36.7c-32.4,0-62-2.8-89.4-7.9c-10.5,27.7-22.4,55-35.8,81.8
					C4582.4,2643.7,4523.6,2725.3,4452.6,2795.4z"/>
				<path d="M4587,1668.5c3.6-5.2,7.1-10.4,10.7-15.3c42.2-57.5,100-86.3,173.3-86.3c121.2,0,181.8,87.6,181.8,262.7
					c0,13.2-0.3,23.2-0.8,29.8c-0.5,6.6-0.8,13.5-0.8,20.6h-267.4c28.5,89.5,40.9,181.4,39.4,274.9h698.3
					c14.3-78.4,21.4-154.3,21.4-227.6c0-155.8-30-287.1-90.1-394c-60.1-106.9-140.3-186.3-240.5-238.3
					c-100.3-51.9-211-77.9-332.2-77.9c-161.9,0-307.3,40-436,119.9c-18,11.2-35.4,23.1-52.3,35.4
					C4413.5,1446.1,4512,1544.7,4587,1668.5z"/>
			</g>
		</g>
	</g>
</g>
<g id="cloud_with_cutout" display="none">
	<g display="inline">
		<path d="M4669.5,1838.2c-110.9-292.7-318.7-482.2-618.6-570.9c-24.3-7.2-49.2-12.1-73.4-17.9c22.3-280.2-42.6-536.3-204.7-765
			c-162-228.6-380.3-379.1-651.9-447.9c-258.9-65.5-512.4-43.3-755,69.3c-282,130.9-476.8,345.7-591.9,633.8
			c-181.4-177.8-391.2-236.1-633.8-154.6C1030.4,622,941,690.3,871.9,783.1c-103.2,138.7-137.7,294.5-108.4,463.3
			c-1.8,1.6-2.1,2.2-2.6,2.3c-9.2,1.8-18.4,3.3-27.6,5.3c-238,51.3-429,174.8-570,373.8C71.2,1758,19.5,1903.7,4.1,2062
			c-8.2,84.1-4.1,168,11.8,251.2c42.9,223.4,153.3,406.7,330.9,548c166.8,132.7,358.5,197.1,571.6,197.1c504.7,0,1009.4,0,1514,0
			l29.4-237.5c-87.6-9.2-188.1-29.8-301.6-61.9c-113.5-32.1-200.3-64.4-260.4-97l68.7-357.4c171.1,107.9,349.2,176.2,534.6,204.7
			L2578,1958c-102.9-49.9-188.9-102.8-258.1-158.8c-69.3-56-123-112.8-161.1-170.3c-38.2-57.5-64.9-112.5-80.2-165
			c-15.3-52.4-22.9-100.5-22.9-144.3c0-77.4,24.9-159.6,74.8-246.7c49.9-87.1,127.5-161.4,232.9-223
			c105.4-61.6,234.4-92.4,387.2-92.4l15.3-110h250.5L2998,782c92.6,19.4,178.7,44.8,258.1,76.4c79.4,31.6,144.1,66.7,194,105.4
			l-42.8,319.2c-66.2-38.7-127.5-72-184-100c-56.5-28-104.1-48.6-142.8-61.9c-38.7-13.2-80.9-24.9-126.8-35.1l-71.8,496.4
			c358.4,176.2,537.6,397.6,537.6,664.4c0,86.6-26,173.6-77.9,261.2c-51.9,87.6-131.6,161.1-239,220.7
			c-107.4,59.6-239.6,92.4-396.3,98.5l-34,231.3c377.7,0,755.5,0,1133.2,0.1c163.2,0,316.1-38.8,457.7-119.9
			c160.9-92.1,282.6-222.3,365.8-387.4c48.9-97.1,78.1-200.8,89.2-309.4C4732.5,2103.5,4718.7,1968.1,4669.5,1838.2z"/>
		<path d="M2944.6,2274.1c0-81.4-44.8-149.1-134.4-203.1l-59.6,430.7c51.9-18.3,97.2-44.8,135.9-79.4
			C2925.2,2387.7,2944.6,2338.3,2944.6,2274.1z"/>
		<path d="M2512.3,1286c0,61.1,46.8,120.7,140.5,178.7l53.5-381.8C2577,1115.4,2512.3,1183.1,2512.3,1286z"/>
	</g>
</g>
</svg>
