<?xml version="1.0" encoding="utf-8"?>
<!-- Generator: Adobe Illustrator 18.1.1, SVG Export Plug-In . SVG Version: 6.00 Build 0)  -->
<svg version="1.1" xmlns="http://www.w3.org/2000/svg" xmlns:xlink="http://www.w3.org/1999/xlink" x="0px" y="0px"
	 viewBox="0 0 7006 7005.1" enable-background="new 0 0 7006 7005.1" xml:space="preserve">
<g id="cloud" display="none">
	<g display="inline">
		<path d="M2570.4,1829.5c115.1-288.1,309.9-503,591.9-633.8c242.6-112.6,496.1-134.8,755-69.3c271.6,68.7,489.9,219.3,651.9,447.9
			c162.1,228.7,227,484.8,204.7,765c24.2,5.9,49.2,10.7,73.4,17.9c299.9,88.7,507.7,278.2,618.6,570.9
			c49.2,129.9,63.1,265.2,48.8,403.6c-11.2,108.6-40.3,212.3-89.2,309.4c-83.2,165.1-204.9,295.3-365.8,387.4
			c-141.6,81.1-294.6,119.9-457.7,119.9c-962.4-0.1-1924.7,0-2887.1-0.1c-213.1,0-404.8-64.4-571.6-197.1
			c-177.6-141.3-288-324.6-330.9-548c-16-83.2-20-167-11.8-251.2c15.4-158.4,67.1-304,159.3-434.2c141-199,331.9-322.5,570-373.8
			c9.1-2,18.4-3.5,27.6-5.3c0.4-0.1,0.8-0.7,2.6-2.3c-29.3-168.8,5.2-324.7,108.4-463.3c69.1-92.8,158.5-161.1,268.3-198
			C2179.3,1593.5,2389.1,1651.7,2570.4,1829.5z"/>
	</g>
</g>
<g id="hand">
	<g>
		<path d="M6548.7,5391.1c-58.5-18.6-116.2-36.1-173.4-55.3c-290.7-97.6-575.9-208.8-852.2-342.5c-177.6-85.9-351-179.1-513.8-290.7
			c-73.5-50.4-143.6-105.8-214.8-159.6c-91.6-69.3-194.2-108.1-309-114.3c-125.6-6.8-246.7,17.6-366.9,50.8
			c-133.9,37-268.8,70.8-406.5,90.4c-104.9,15-210.5,25.1-316.1,35.2c-103.7,9.9-207.7,16.7-311.6,25.4
			c-72.1,6.1-144.3,11.8-216.1,20.2c-74.4,8.7-147.7,22.9-216.9,53.5c-87.7,38.8-127.4,107.9-133.1,201.6
			c-7.4,122.6,78.6,224.3,202.4,257.1c51.6,13.7,104.3,18.1,157.7,14.2c212.4-15.7,424.8-30.8,638-24c100.3,3.2,201.1,1.9,299,29.5
			c34.4,9.7,68.4,20.9,102.5,31.4c-0.4,1.7-0.7,3.5-1.1,5.2c-57.1,7.7-114.1,15.7-171.2,22.9c-83.5,10.6-167,21.2-250.7,30.9
			c-81.2,9.4-162.3,19.7-243.7,25.8c-95.8,7.2-191.9,12.9-287.9,14.3c-105,1.5-209.4-8-310.3-40.7
			c-136.1-44.2-228.3-132-266.8-271.6c-18.9-68.4-9-136,10.5-202.8c2.1-7.2,4-14.4,5.8-21.6c0.3-1.1-0.4-2.4-0.9-5.1
			c-62.5-18.4-125.6-37.4-188.9-55.5c-274.7-78.8-549.1-158.4-824.2-235.3c-110.6-30.9-222.5-26.7-331.8,9.2
			c-89.6,29.4-143.4,102.8-147.1,192.2c-2.3,57,28.2,97,70.2,127c38.7,27.7,80.7,52.5,124.6,70.9
			c228.3,95.6,450.8,203.3,670.9,316.2c288.1,147.7,569.6,307,844.6,477.8c46.1,28.6,91,59.3,138.2,86
			c79.2,44.7,164.5,57.2,254.9,45.3c82.2-10.8,164.9-18.8,247.6-25.3c116.3-9.1,232.8-17.1,349.4-22.9c124-6.2,248.2-9.7,372.4-13.5
			c166-5,331.9-2.9,497.4,13.4c174.3,17.2,344.9,50.5,508.8,114.6c166.7,65.2,316.4,157.8,450.7,275.9c5.3,4.7,15.6,8.3,22,6.6
			c268.1-69.1,522.3-170.1,749.2-331.8c124.4-88.7,230.8-194.7,300-333.5c11.4-22.8,20.3-46.8,29.9-70.4
			C6543.5,5409.6,6545.7,5400.6,6548.7,5391.1z"/>
	</g>
</g>
<g id="text_version" display="none">
	<g id="cloud_with_cutout_and_e" display="inline">
		<g>
			<path d="M4794.7,3518.3c-43.8-109-65.7-216.9-65.7-323.8c0-159.8,36.4-307.8,109.2-443.7c62.6-116.9,146.1-212.9,250.1-288.4
				c-72.3-43.8-152.6-79-241-105.1c-24.3-7.2-49.2-12.1-73.4-17.9c22.3-280.2-42.6-536.3-204.7-765
				c-162-228.6-380.3-379.1-651.9-447.9c-258.9-65.5-512.4-43.3-755,69.3c-282,130.9-476.8,345.7-591.9,633.8
				c-181.4-177.8-391.2-236.1-633.8-154.6c-109.9,36.9-199.2,105.2-268.3,198c-103.2,138.7-137.7,294.5-108.4,463.3
				c-1.8,1.6-2.1,2.2-2.6,2.3c-9.2,1.8-18.4,3.3-27.6,5.3c-238,51.3-429,174.8-570,373.8c-92.2,130.2-143.9,275.8-159.3,434.2
				c-8.2,84.1-4.1,168,11.8,251.2c42.9,223.4,153.3,406.7,330.9,548c166.8,132.7,358.5,197.1,571.6,197.1c504.7,0,1009.4,0,1514,0
				l29.4-237.5c-87.6-9.2-188.1-29.8-301.6-61.9c-113.5-32.1-200.3-64.4-260.4-97l68.7-357.4c171.1,107.9,349.2,176.2,534.6,204.7
				l74.8-551.4c-102.9-49.9-188.9-102.8-258.1-158.8c-69.3-56-123-112.8-161.1-170.3c-38.2-57.5-64.9-112.5-80.2-165
				c-15.3-52.4-22.9-100.5-22.9-144.3c0-77.4,24.9-159.6,74.8-246.7c49.9-87.1,127.5-161.4,232.9-223
				c105.4-61.6,234.4-92.4,387.2-92.4l15.3-110h250.5l-18.3,134.4c92.6,19.4,178.7,44.8,258.1,76.4c79.4,31.6,144.1,66.7,194,105.4
				l-42.8,319.2c-66.2-38.7-127.5-72-184-100c-56.5-28-104.1-48.6-142.8-61.9c-38.7-13.2-80.9-24.9-126.8-35.1l-71.8,496.4
				c358.4,176.2,537.6,397.6,537.6,664.4c0,86.6-26,173.6-77.9,261.2c-51.9,87.6-131.6,161.1-239,220.7
				c-107.4,59.6-239.6,92.4-396.3,98.5l-34,231.3c377.7,0,755.5,0,1133.2,0.1c163.2,0,316.1-38.8,457.7-119.9
				c70.7-40.5,133.8-88.3,189.4-143.1c-79.5-19.6-148.5-48.2-206.9-86C4921,3720.9,4838.5,3627.3,4794.7,3518.3z"/>
			<path d="M3741,3364c0-81.4-44.8-149.1-134.4-203.1l-59.6,430.7c51.9-18.3,97.2-44.8,135.9-79.4
				C3721.7,3477.6,3741,3428.2,3741,3364z"/>
			<path d="M3308.8,2375.9c0,61.1,46.8,120.7,140.5,178.7l53.5-381.8C3373.5,2205.3,3308.8,2273,3308.8,2375.9z"/>
		</g>
		<g id="ellf.org">
			<path d="M7400.8,1772.6l-313.1,2116.9h-516.2l313.1-2116.9H7400.8z"/>
			<g>
				<path d="M5383.5,2758.4c-38.2,55.5-74.1,125.8-107.7,211.5h204.6c-4.5-14-9.2-28-14.5-41.8
					C5442.8,2867,5415.1,2810.6,5383.5,2758.4z"/>
				<path d="M5519.9,3244.9h-285.3c0,181.8,75.8,286.4,226.8,314.3c27.6-72.9,45.3-148.9,53.4-227.5
					C5517.8,3302.6,5519.4,3273.7,5519.9,3244.9z"/>
				<path d="M5249.1,3885.3c85.4,21,182.8,31.6,292.5,31.6c99.8,0,182.5-7.6,248.2-22.9c65.7-15.3,153-44.8,261.9-88.6l77.9-381.8
					c-115.1,46.8-214.1,82.5-297.1,106.9c-83,24.4-176.9,36.7-281.8,36.7c-32.4,0-62-2.8-89.4-7.9c-10.5,27.7-22.4,55-35.8,81.8
					C5378.9,3733.6,5320.1,3815.2,5249.1,3885.3z"/>
				<path d="M5383.5,2758.4c3.6-5.2,7.1-10.4,10.7-15.3c42.2-57.5,100-86.3,173.3-86.3c121.2,0,181.8,87.6,181.8,262.7
					c0,13.2-0.3,23.2-0.8,29.8c-0.5,6.6-0.8,13.5-0.8,20.6h-267.4c28.5,89.5,40.9,181.4,39.4,274.9h698.3
					c14.3-78.4,21.4-154.3,21.4-227.6c0-155.8-30-287.1-90.1-394c-60.1-106.9-140.3-186.3-240.5-238.3
					c-100.3-51.9-211-77.9-332.2-77.9c-161.9,0-307.3,40-436,119.9c-18,11.2-35.4,23.1-52.3,35.4
					C5210,2536,5308.5,2634.6,5383.5,2758.4z"/>
			</g>
		</g>
	</g>
</g>
<g id="cloud_with_cutout">
	<g>
		<path d="M5465.9,2928.1c-110.9-292.7-318.7-482.2-618.6-570.9c-24.3-7.2-49.2-12.1-73.4-17.9c22.3-280.2-42.6-536.3-204.7-765
			c-162-228.6-380.3-379.1-651.9-447.9c-258.9-65.5-512.4-43.3-755,69.3c-282,130.9-476.8,345.7-591.9,633.8
			c-181.4-177.8-391.2-236.1-633.8-154.6c-109.9,36.9-199.2,105.2-268.3,198c-103.2,138.7-137.7,294.5-108.4,463.3
			c-1.8,1.6-2.1,2.2-2.6,2.3c-9.2,1.8-18.4,3.3-27.6,5.3c-238,51.3-429,174.8-570,373.8c-92.2,130.2-143.9,275.8-159.3,434.2
			c-8.2,84.1-4.1,168,11.8,251.2c42.9,223.4,153.3,406.7,330.9,548c166.8,132.7,358.5,197.1,571.6,197.1c504.7,0,1009.4,0,1514,0
			l29.4-237.5c-87.6-9.2-188.1-29.8-301.6-61.9c-113.5-32.1-200.3-64.4-260.4-97l68.7-357.4c171.1,107.9,349.2,176.2,534.6,204.7
			l74.8-551.4c-102.9-49.9-188.9-102.8-258.1-158.8c-69.3-56-123-112.8-161.1-170.3c-38.2-57.5-64.9-112.5-80.2-165
			c-15.3-52.4-22.9-100.5-22.9-144.3c0-77.4,24.9-159.6,74.8-246.7c49.9-87.1,127.5-161.4,232.9-223
			c105.4-61.6,234.4-92.4,387.2-92.4l15.3-110h250.5l-18.3,134.4c92.6,19.4,178.7,44.8,258.1,76.4c79.4,31.6,144.1,66.7,194,105.4
			l-42.8,319.2c-66.2-38.7-127.5-72-184-100c-56.5-28-104.1-48.6-142.8-61.9c-38.7-13.2-80.9-24.9-126.8-35.1l-71.8,496.4
			c358.4,176.2,537.6,397.6,537.6,664.4c0,86.6-26,173.6-77.9,261.2c-51.9,87.6-131.6,161.1-239,220.7
			c-107.4,59.6-239.6,92.4-396.3,98.5l-34,231.3c377.7,0,755.5,0,1133.2,0.1c163.2,0,316.1-38.8,457.7-119.9
			c160.9-92.1,282.6-222.3,365.8-387.4c48.9-97.1,78.1-200.8,89.2-309.4C5529,3193.4,5515.1,3058,5465.9,2928.1z"/>
		<path d="M3741,3364c0-81.4-44.8-149.1-134.4-203.1l-59.6,430.7c51.9-18.3,97.2-44.8,135.9-79.4
			C3721.7,3477.6,3741,3428.2,3741,3364z"/>
		<path d="M3308.8,2375.9c0,61.1,46.8,120.7,140.5,178.7l53.5-381.8C3373.5,2205.3,3308.8,2273,3308.8,2375.9z"/>
	</g>
</g>
</svg>
